<?xml version="1.0" encoding="UTF-8" standalone="no"?>
<!-- Created with Inkscape (http://www.inkscape.org/) -->

<svg
   xmlns:dc="http://purl.org/dc/elements/1.1/"
   xmlns:cc="http://creativecommons.org/ns#"
   xmlns:rdf="http://www.w3.org/1999/02/22-rdf-syntax-ns#"
   xmlns:svg="http://www.w3.org/2000/svg"
   xmlns="http://www.w3.org/2000/svg"
   xmlns:sodipodi="http://sodipodi.sourceforge.net/DTD/sodipodi-0.dtd"
   xmlns:inkscape="http://www.inkscape.org/namespaces/inkscape"
   width="8.9206438mm"
   height="9.5194197mm"
   viewBox="0 0 8.9206438 9.5194197"
   version="1.1"
   id="svg2415"
   inkscape:version="0.92.5 (2060ec1f9f, 2020-04-08)"
   sodipodi:docname="clefs.svg">
  <defs
     id="defs2409">
    <clipPath
       id="clip15">
      <path
         d="m 326,104 h 15 v 21.5625 h -15 z m 0,0"
         id="path649"
         inkscape:connector-curvature="0" />
    </clipPath>
    <clipPath
       id="clip16">
      <path
         d="M 325.69141,98.574219 H 346 V 114 h -20.30859 z m 0,0"
         id="path652"
         inkscape:connector-curvature="0" />
    </clipPath>
  </defs>
  <sodipodi:namedview
     id="base"
     pagecolor="#ffffff"
     bordercolor="#666666"
     borderopacity="1.0"
     inkscape:pageopacity="0.0"
     inkscape:pageshadow="2"
     inkscape:zoom="9.6616368"
     inkscape:cx="-1.3194023"
     inkscape:cy="12.407004"
     inkscape:document-units="mm"
     inkscape:current-layer="layer1"
     showgrid="false"
     fit-margin-top="0"
     fit-margin-left="0"
     fit-margin-right="0"
     fit-margin-bottom="0"
     inkscape:window-width="1848"
     inkscape:window-height="1016"
     inkscape:window-x="72"
     inkscape:window-y="27"
     inkscape:window-maximized="1" />
  <metadata
     id="metadata2412">
    <rdf:RDF>
      <cc:Work
         rdf:about="">
        <dc:format>image/svg+xml</dc:format>
        <dc:type
           rdf:resource="http://purl.org/dc/dcmitype/StillImage" />
        <dc:title></dc:title>
      </cc:Work>
    </rdf:RDF>
  </metadata>
  <g
     inkscape:label="Calque 1"
     inkscape:groupmode="layer"
     id="layer1"
     transform="translate(1.4365119,38.866853)">
    <g
       transform="matrix(0.35277777,0,0,0.35277777,-116.33324,-73.641713)"
       style="display:inline"
       id="g2388">
      <path
         style="fill:#fdfdfd;fill-opacity:1;fill-rule:nonzero;stroke:none"
         d="m 337.16406,119.69531 c 0.043,0 0.082,-0.008 0.125,-0.0234 0.17188,-0.0703 0.25391,-0.26563 0.1836,-0.4375 l -2.33594,-5.8125 c -0.0703,-0.17188 -0.26172,-0.25391 -0.4336,-0.1875 -0.17187,0.0703 -0.2539,0.26562 -0.18359,0.4375 l 2.33594,5.8125 c 0.0508,0.13281 0.17578,0.21093 0.30859,0.21093"
         id="path821"
         inkscape:connector-curvature="0" />
      <g
         clip-path="url(#clip15)"
         id="g825"
         style="clip-rule:nonzero">
        <path
           style="fill:#fdfdfd;fill-opacity:1;fill-rule:nonzero;stroke:none"
           d="m 335.73437,121.89453 c -0.0976,0.25391 -0.0859,0.53125 0.0274,0.78125 l 0.30078,0.66797 c 0.11328,0.25 0.3125,0.44141 0.57031,0.53906 0.23047,0.0859 0.48047,0.0859 0.71094,0 l 0.35156,0.78125 c 0.25,0.5586 0.80469,0.89453 1.38281,0.89453 0.19922,0 0.40235,-0.043 0.59375,-0.125 0.74219,-0.32031 1.10157,-1.16796 0.82032,-1.92968 l -3.72657,-9.98047 c -0.0625,-0.17188 -0.2539,-0.26172 -0.42578,-0.19531 -0.17187,0.0625 -0.26172,0.25781 -0.19531,0.42968 l 3.72266,9.98047 c 0.16015,0.42578 -0.043,0.90235 -0.46094,1.08203 -0.41797,0.1836 -0.91797,-0.0117 -1.10547,-0.43359 l -0.48828,-1.08203 c -0.0352,-0.082 -0.10156,-0.14453 -0.18359,-0.17578 -0.082,-0.0312 -0.17579,-0.0273 -0.25391,0.008 l -0.23828,0.10937 c -0.0859,0.0391 -0.1836,0.043 -0.26953,0.008 -0.0899,-0.0312 -0.16016,-0.0977 -0.19922,-0.1875 l -0.30078,-0.66407 c -0.0391,-0.0898 -0.043,-0.18359 -0.0117,-0.27343 0.0351,-0.0898 0.10156,-0.16016 0.1875,-0.19922 l 0.23828,-0.10938 c 0.16797,-0.0781 0.24219,-0.27343 0.16797,-0.4414 L 336.21875,119.75 c -0.0391,-0.082 -0.10547,-0.14453 -0.1875,-0.17578 -0.082,-0.0312 -0.17578,-0.0273 -0.25391,0.008 l -0.24218,0.10938 c -0.17969,0.082 -0.39063,0.004 -0.47266,-0.17578 l -0.30078,-0.66797 c -0.0391,-0.0859 -0.043,-0.1836 -0.008,-0.27344 0.0312,-0.0898 0.0976,-0.16016 0.18359,-0.19922 l 0.24609,-0.10937 c 0.16797,-0.0781 0.24219,-0.27735 0.16797,-0.44532 l -0.60547,-1.34765 c -0.0742,-0.16407 -0.26172,-0.23828 -0.42578,-0.17578 l -0.34765,0.13671 c -0.1836,0.0742 -0.39063,-0.0156 -0.46094,-0.19921 l -0.26953,-0.6836 c -0.0312,-0.0859 -0.0312,-0.18359 0.008,-0.26953 0.0352,-0.0898 0.10547,-0.15625 0.19531,-0.19141 l 0.25,-0.10156 c 0.0859,-0.0312 0.15235,-0.0977 0.1875,-0.18359 0.0352,-0.0859 0.0312,-0.17969 -0.004,-0.26172 l -0.32422,-0.71484 c -0.0586,-0.13282 -0.19532,-0.21485 -0.33985,-0.19532 -1.22656,0.13672 -2.46875,-0.17187 -3.48828,-0.87109 -1.14453,-0.78125 -1.91406,-1.96484 -2.17187,-3.32813 -0.25782,-1.36328 0.0273,-2.75 0.80859,-3.89453 0.23828,-0.35156 0.51563,-0.67187 0.82813,-0.95312 0.13671,-0.125 0.14843,-0.33594 0.0273,-0.47266 -0.12109,-0.14062 -0.33203,-0.15234 -0.46875,-0.0273 -0.35547,0.3164 -0.66797,0.67969 -0.9375,1.07422 -1.81641,2.67578 -1.125,6.33203 1.53906,8.15625 1.08594,0.74218 2.39063,1.09375 3.69531,1.0039 l 0.082,0.17969 c -0.21875,0.10547 -0.39454,0.28516 -0.49219,0.51172 -0.10938,0.25391 -0.11328,0.53125 -0.0117,0.78516 l 0.26953,0.68359 c 0.20313,0.52734 0.79688,0.78516 1.32422,0.57812 l 0.0508,-0.0195 0.33984,0.75391 c -0.22265,0.11719 -0.39062,0.30859 -0.48046,0.54687 -0.0937,0.25782 -0.0859,0.53516 0.0273,0.78516 l 0.30078,0.66797 c 0.11328,0.25 0.31641,0.4375 0.57031,0.53516 0.23438,0.0898 0.48828,0.0898 0.71875,0 l 0.46094,1.02343 c -0.21875,0.11719 -0.38672,0.3086 -0.47266,0.54297"
           id="path823"
           inkscape:connector-curvature="0" />
      </g>
      <path
         style="fill:#fdfdfd;fill-opacity:1;fill-rule:nonzero;stroke:none"
         d="m 341.55859,108.80078 c -0.10547,0.15235 -0.0703,0.35938 0.0781,0.46485 l 8.3164,5.89062 c 0.3711,0.26172 0.46875,0.76953 0.22657,1.15234 -0.2461,0.39063 -0.76563,0.51172 -1.15625,0.26954 l -1.01172,-0.6211 c -0.0742,-0.043 -0.16406,-0.0586 -0.25,-0.0391 -0.0859,0.0234 -0.16016,0.0742 -0.20703,0.15234 l -0.13282,0.22266 c -0.0508,0.082 -0.1289,0.13672 -0.21875,0.16016 -0.0937,0.0234 -0.1875,0.008 -0.26953,-0.043 l -0.625,-0.37891 c -0.082,-0.0508 -0.13672,-0.12891 -0.16015,-0.22266 -0.0234,-0.0937 -0.008,-0.1875 0.043,-0.26953 l 0.13671,-0.22656 c 0.0937,-0.15625 0.0469,-0.36328 -0.10937,-0.45703 l -1.51953,-0.93359 c -0.0742,-0.0469 -0.16406,-0.0586 -0.25,-0.0391 -0.0859,0.0195 -0.16016,0.0742 -0.20703,0.15235 l -0.14063,0.22656 c -0.0469,0.082 -0.125,0.14062 -0.21875,0.16016 -0.0898,0.0234 -0.1875,0.008 -0.26562,-0.0391 L 342.99219,114 c -0.16797,-0.10156 -0.21875,-0.32031 -0.11719,-0.48828 l 0.14062,-0.23438 c 0.0937,-0.15625 0.043,-0.36328 -0.11328,-0.45703 l -1.25781,-0.77343 c -0.15234,-0.0937 -0.34766,-0.0508 -0.44922,0.0977 l -0.20703,0.3086 c -0.10937,0.16406 -0.33203,0.20703 -0.49609,0.0937 l -0.60157,-0.41016 c -0.16406,-0.11328 -0.20312,-0.33203 -0.0937,-0.49609 l 0.15235,-0.22657 c 0.0508,-0.0742 0.0703,-0.16797 0.0508,-0.25781 -0.0195,-0.0898 -0.0742,-0.16797 -0.15234,-0.21484 l -0.66797,-0.41016 c -0.1211,-0.0742 -0.28125,-0.0625 -0.39063,0.0352 -0.9375,0.80859 -2.13281,1.2539 -3.37109,1.2539 -2.85547,0 -5.17578,-2.33203 -5.17578,-5.19922 0,-1.78906 0.89843,-3.43359 2.40234,-4.39453 0.15625,-0.0977 0.19922,-0.30468 0.10156,-0.46093 -0.0976,-0.15625 -0.30468,-0.19922 -0.45703,-0.10157 -1.69922,1.08594 -2.71484,2.9375 -2.71484,4.95703 0,3.23438 2.62109,5.86719 5.84375,5.86719 1.3164,0 2.58984,-0.44531 3.61719,-1.26172 l 0.16796,0.10547 c -0.12109,0.21094 -0.16406,0.45703 -0.11718,0.69922 0.0508,0.26953 0.20312,0.50391 0.42968,0.65625 l 0.60547,0.41406 c 0.46485,0.31641 1.10157,0.19532 1.41797,-0.27343 l 0.0312,-0.043 0.70313,0.43359 c -0.25,0.47266 -0.0899,1.07031 0.37109,1.35156 l 0.625,0.38282 c 0.23438,0.14062 0.50781,0.18359 0.77344,0.12109 0.24219,-0.0586 0.44922,-0.20313 0.59375,-0.40625 l 0.94922,0.58594 c -0.11328,0.21875 -0.14453,0.46875 -0.082,0.71484 0.0625,0.26563 0.22656,0.48828 0.46093,0.63281 l 0.6211,0.37891 c 0.23437,0.14453 0.50781,0.1875 0.77343,0.12109 0.23829,-0.0586 0.44532,-0.19922 0.58985,-0.39843 l 0.72656,0.44531 c 0.24219,0.14844 0.51563,0.22265 0.78125,0.22265 0.50391,0 0.99609,-0.25 1.28516,-0.70312 0.43359,-0.6875 0.2539,-1.58984 -0.40625,-2.05859 l -8.3125,-5.89063 c -0.15235,-0.10547 -0.35938,-0.0703 -0.46485,0.082"
         id="path827"
         inkscape:connector-curvature="0" />
      <g
         clip-path="url(#clip16)"
         id="g831"
         style="clip-rule:nonzero">
        <path
           style="fill:#fdfdfd;fill-opacity:1;fill-rule:nonzero;stroke:none"
           d="m 327.03516,105.62109 c 0.14453,-0.11328 0.17578,-0.32421 0.0625,-0.46875 -0.48438,-0.64453 -0.73829,-1.41406 -0.73829,-2.22265 0,-2.03125 1.64454,-3.687502 3.67188,-3.687502 2.02344,0 3.66797,1.656252 3.66797,3.687502 0,0.1875 -0.0117,0.37109 -0.0391,0.55469 -1.27344,0.0195 -2.30079,1.0625 -2.30079,2.34375 0,1.28906 1.04688,2.34375 2.33204,2.34375 1.28515,0 2.33203,-1.05469 2.33203,-2.34375 0,-0.63672 -0.25,-1.23438 -0.70313,-1.67579 -0.1289,-0.1289 -0.33984,-0.1289 -0.46875,0.004 -0.1289,0.13281 -0.125,0.34375 0.004,0.47266 0.32422,0.3164 0.5039,0.74218 0.5039,1.19922 0,0.92187 -0.75,1.67187 -1.66796,1.67187 -0.91797,0 -1.66797,-0.75 -1.66797,-1.67187 0,-0.85547 0.64062,-1.5586 1.46484,-1.66016 -0.16406,0.46094 -0.41797,0.89062 -0.75781,1.26172 -0.125,0.13281 -0.11719,0.34765 0.0195,0.47265 0.0625,0.0586 0.14453,0.0859 0.22266,0.0859 0.0898,0 0.17968,-0.0352 0.24609,-0.10547 0.74219,-0.80859 1.14844,-1.85547 1.14844,-2.95312 0,-0.47266 -0.0781,-0.92578 -0.21485,-1.35156 0.41016,-0.10547 0.83594,-0.16016 1.26563,-0.16016 2.85547,0 5.17969,2.33594 5.17969,5.20312 0,0.5 -0.0742,0.9961 -0.21485,1.47657 0,0.004 0,0.004 0,0.004 -0.13672,0.46094 -0.33203,0.89453 -0.58984,1.30078 -0.0977,0.15235 -0.0547,0.35547 0.0976,0.45704 l 5.1875,3.48437 c 0.0586,0.0391 0.1211,0.0547 0.1875,0.0547 0.10547,0 0.21094,-0.0508 0.27735,-0.14844 0.10156,-0.15234 0.0586,-0.35937 -0.0937,-0.46094 l -4.92578,-3.30859 c 0.22656,-0.41016 0.40625,-0.84375 0.52734,-1.29688 0.004,-0.008 0.004,-0.0156 0.004,-0.0234 0.13672,-0.5 0.20703,-1.01953 0.20703,-1.53907 0,-3.23828 -2.6211,-5.87109 -5.84375,-5.87109 -0.51953,0 -1.03125,0.0703 -1.52735,0.20313 -0.71484,-1.410161 -2.17968,-2.378911 -3.85937,-2.378911 -2.39453,0 -4.33984,1.953121 -4.33984,4.355471 0,0.95703 0.30468,1.86328 0.875,2.625 0.11328,0.14844 0.32031,0.17578 0.46875,0.0664"
           id="path829"
           inkscape:connector-curvature="0" />
      </g>
    </g>
  </g>
</svg>
