<?xml version="1.0" encoding="UTF-8" standalone="no"?>
<!-- Created with Inkscape (http://www.inkscape.org/) -->

<svg
   xmlns:dc="http://purl.org/dc/elements/1.1/"
   xmlns:cc="http://creativecommons.org/ns#"
   xmlns:rdf="http://www.w3.org/1999/02/22-rdf-syntax-ns#"
   xmlns:svg="http://www.w3.org/2000/svg"
   xmlns="http://www.w3.org/2000/svg"
   xmlns:sodipodi="http://sodipodi.sourceforge.net/DTD/sodipodi-0.dtd"
   xmlns:inkscape="http://www.inkscape.org/namespaces/inkscape"
   width="11.540919mm"
   height="9.5194902mm"
   viewBox="0 0 11.540919 9.5194903"
   version="1.1"
   id="svg2415"
   inkscape:version="0.92.5 (2060ec1f9f, 2020-04-08)"
   sodipodi:docname="cochon.svg">
  <defs
     id="defs2409">
    <clipPath
       id="clip15">
      <path
         d="m 326,104 h 15 v 21.5625 h -15 z m 0,0"
         id="path649"
         inkscape:connector-curvature="0" />
    </clipPath>
    <clipPath
       id="clip16">
      <path
         d="M 325.69141,98.574219 H 346 V 114 h -20.30859 z m 0,0"
         id="path652"
         inkscape:connector-curvature="0" />
    </clipPath>
    <clipPath
       id="clip17">
      <path
         inkscape:connector-curvature="0"
         id="path655"
         d="M 419.03516,101 H 443 v 18.49609 h -23.96484 z m 0,0" />
    </clipPath>
    <clipPath
       id="clip18">
      <path
         inkscape:connector-curvature="0"
         id="path658"
         d="m 430,97.007812 h 7 V 104 h -7 z m 0,0" />
    </clipPath>
    <clipPath
       id="clip19">
      <path
         inkscape:connector-curvature="0"
         id="path661"
         d="m 442,104 h 4.76953 v 5 H 442 Z m 0,0" />
    </clipPath>
    <clipPath
       id="clip20">
      <path
         inkscape:connector-curvature="0"
         id="path664"
         d="m 514.42969,110.53125 h 29.23047 v 11.05078 h -29.23047 z m 0,0" />
    </clipPath>
    <clipPath
       id="clip21">
      <path
         inkscape:connector-curvature="0"
         id="path667"
         d="m 525,94.597656 h 18 V 111 h -18 z m 0,0" />
    </clipPath>
  </defs>
  <sodipodi:namedview
     id="base"
     pagecolor="#ffffff"
     bordercolor="#666666"
     borderopacity="1.0"
     inkscape:pageopacity="0.0"
     inkscape:pageshadow="2"
     inkscape:zoom="9.6616368"
     inkscape:cx="16.206758"
     inkscape:cy="13.732781"
     inkscape:document-units="mm"
     inkscape:current-layer="layer1"
     showgrid="false"
     fit-margin-top="0"
     fit-margin-left="0"
     fit-margin-right="0"
     fit-margin-bottom="0"
     inkscape:window-width="1848"
     inkscape:window-height="1016"
     inkscape:window-x="72"
     inkscape:window-y="27"
     inkscape:window-maximized="1" />
  <metadata
     id="metadata2412">
    <rdf:RDF>
      <cc:Work
         rdf:about="">
        <dc:format>image/svg+xml</dc:format>
        <dc:type
           rdf:resource="http://purl.org/dc/dcmitype/StillImage" />
        <dc:title></dc:title>
      </cc:Work>
    </rdf:RDF>
  </metadata>
  <g
     inkscape:label="Calque 1"
     inkscape:groupmode="layer"
     id="layer1"
     transform="translate(5.5259432,39.529388)">
    <g
       transform="matrix(1.0538157,0,0,1.051787,-328.76553,-166.86923)"
       id="layer1-6"
       inkscape:label="Calque 1">
      <g
         id="g3015"
         style="display:inline"
         transform="matrix(0.35277777,0,0,0.35277777,159.53543,87.966568)">
        <g
           style="clip-rule:nonzero"
           id="g835"
           clip-path="url(#clip17)">
          <path
             inkscape:connector-curvature="0"
             id="path833"
             d="m 436.08594,117.70313 c 0.0625,0 0.12109,0.0234 0.16797,0.0625 0.0586,0.0508 0.0937,0.125 0.0937,0.20312 v 0.70313 c 0,0.16015 0.14453,0.28906 0.32031,0.28906 h 2.9414 c 0.17579,0 0.32032,-0.12891 0.32032,-0.28906 v -2.64063 c 0,-0.0742 0.0312,-0.14453 0.0859,-0.19531 1.52344,-1.38281 2.35938,-3.41797 2.35938,-5.73047 0,-3.67188 -2.03516,-6.42188 -5.45703,-7.39844 -0.66797,1.19531 -1.89844,1.92578 -3.25781,1.92578 -1.375,0 -2.61329,-0.74218 -3.27735,-1.95312 -0.64453,0.14844 -1.29297,0.33594 -1.92578,0.5625 -0.0664,0.0234 -0.13672,0.0156 -0.19922,-0.0156 l -2.24219,-1.12109 -0.0625,0.96484 c -0.004,0.0898 -0.0547,0.16797 -0.1289,0.21485 -0.0742,0.043 -0.16797,0.0469 -0.2461,0.008 l -1.38671,-0.69531 -0.1836,2.83984 c -0.004,0.0781 -0.043,0.15234 -0.10547,0.19531 -1.375,1.00391 -2.4375,2.11328 -3.07812,3.21094 -0.0508,0.0781 -0.13672,0.12891 -0.22656,0.12891 h -0.71875 c -0.15625,0 -0.28516,0.1914 -0.28516,0.41406 v 3.45312 c 0,0.22657 0.12891,0.41797 0.28516,0.41797 h 1.01953 c 0.0781,0 0.15234,0.0352 0.19922,0.0977 1.03515,1.26953 2.875,2.42969 5.18359,3.26953 0.10156,0.0391 0.17187,0.13672 0.17187,0.25 v 1.79688 c 0,0.16015 0.14454,0.28906 0.32032,0.28906 h 2.9414 c 0.17578,0 0.32032,-0.12891 0.32032,-0.28906 v -0.75 c 0,-0.0781 0.0312,-0.15235 0.0898,-0.20313 0.0586,-0.0508 0.13672,-0.0703 0.21094,-0.0586 2,0.3125 3.99609,0.37109 5.70312,0.0469 0.0156,0 0.0312,-0.004 0.0469,-0.004 z m 3.52343,1.78906 h -2.9414 c -0.46485,0 -0.84375,-0.36719 -0.84375,-0.82031 v -0.38672 c -1.60547,0.25781 -3.42969,0.20312 -5.26953,-0.0586 v 0.44532 c 0,0.45312 -0.375,0.82031 -0.83985,0.82031 h -2.9414 c -0.46485,0 -0.84375,-0.36719 -0.84375,-0.82031 v -1.61329 c -2.25782,-0.84375 -4.07813,-2 -5.15235,-3.27343 h -0.89843 c -0.44532,0 -0.8086,-0.42188 -0.8086,-0.94532 v -3.45312 c 0,-0.51953 0.36328,-0.94531 0.8086,-0.94531 h 0.57031 c 0.66797,-1.08985 1.71875,-2.17578 3.04687,-3.16407 l 0.19922,-3.10937 c 0.004,-0.0898 0.0547,-0.16797 0.12891,-0.21484 0.0742,-0.043 0.16797,-0.0469 0.24609,-0.008 l 1.38672,0.69532 0.0625,-0.96485 c 0.004,-0.0859 0.0547,-0.16797 0.12891,-0.21094 0.0781,-0.043 0.16797,-0.0469 0.24609,-0.008 l 2.49609,1.2461 c 0.67969,-0.23829 1.37891,-0.4336 2.07813,-0.58594 0.12109,-0.0273 0.23828,0.0312 0.28906,0.14062 0.54688,1.14063 1.65625,1.84766 2.90235,1.84766 1.23437,0 2.33984,-0.69922 2.89062,-1.82422 0.0547,-0.11328 0.17969,-0.17187 0.29688,-0.14062 3.78906,0.98828 6.05078,3.96484 6.05078,7.96484 0,2.42187 -0.86719,4.56641 -2.44532,6.04687 v 2.51954 c 0,0.45312 -0.3789,0.82031 -0.84375,0.82031"
             style="fill:#fdfdfd;fill-opacity:1;fill-rule:nonzero;stroke:none" />
        </g>
        <g
           style="clip-rule:nonzero"
           id="g839"
           clip-path="url(#clip18)">
          <path
             inkscape:connector-curvature="0"
             id="path837"
             d="m 433.67187,97.535156 c -1.46484,0 -2.66015,1.210938 -2.66015,2.695314 0,1.48828 1.19531,2.69922 2.66015,2.69922 1.46875,0 2.66016,-1.21094 2.66016,-2.69922 0,-1.484376 -1.19141,-2.695314 -2.66016,-2.695314 z m 0,5.921874 c -1.7539,0 -3.17968,-1.44531 -3.17968,-3.22656 0,-1.777345 1.42578,-3.222658 3.17968,-3.222658 1.75782,0 3.1836,1.445313 3.1836,3.222658 0,1.78125 -1.42578,3.22656 -3.1836,3.22656"
             style="fill:#fdfdfd;fill-opacity:1;fill-rule:nonzero;stroke:none" />
        </g>
        <g
           style="clip-rule:nonzero"
           id="g843"
           clip-path="url(#clip19)">
          <path
             inkscape:connector-curvature="0"
             id="path841"
             d="m 443.44531,105.125 c -0.29297,0 -0.68359,0.23828 -0.6875,0.37891 -0.004,0.30468 0.51953,0.55468 0.86719,0.71875 0.10547,0.0508 0.20312,0.0977 0.28125,0.14062 0.0547,0.0312 0.11719,0.0625 0.17578,0.0937 -0.0117,-0.11719 -0.0312,-0.23828 -0.0586,-0.36328 -0.125,-0.48828 -0.26563,-0.96484 -0.57032,-0.96875 z m -0.4414,3.26953 c -0.25391,0 -0.51954,-0.0312 -0.58985,-0.0391 -0.14453,-0.0156 -0.24609,-0.14844 -0.22656,-0.29297 0.0156,-0.14844 0.14453,-0.25 0.28906,-0.23437 0.26953,0.0352 0.625,0.0508 0.75,0.0195 0.30469,-0.0703 0.53516,-0.23047 0.67969,-0.47266 0.0625,-0.10156 0.10937,-0.21875 0.14062,-0.34766 -0.1289,-0.0586 -0.25781,-0.125 -0.39453,-0.19921 -0.0703,-0.0391 -0.15625,-0.082 -0.25,-0.125 -0.46875,-0.22266 -1.17968,-0.5625 -1.16406,-1.20704 0.008,-0.55078 0.74219,-0.91015 1.21875,-0.90234 0.73438,0.008 0.94531,0.86328 1.07031,1.37109 0.0625,0.2461 0.0899,0.48829 0.0859,0.71875 0.42578,0.13672 0.85156,0.15625 1.14453,-0.11328 0.20313,-0.1914 0.35156,-0.70703 -0.10547,-2.08593 -0.0469,-0.14063 0.0274,-0.28907 0.16407,-0.33594 0.13671,-0.0469 0.28515,0.0273 0.33203,0.16797 0.28515,0.85547 0.58593,2.0625 -0.0391,2.64453 -0.38281,0.35937 -0.91796,0.4414 -1.57031,0.25 -0.043,0.16015 -0.10547,0.30859 -0.1875,0.4414 -0.21875,0.36329 -0.5664,0.60938 -1.00781,0.71485 -0.0898,0.0195 -0.21484,0.0273 -0.33984,0.0273"
             style="fill:#fdfdfd;fill-opacity:1;fill-rule:nonzero;stroke:none" />
        </g>
        <path
           inkscape:connector-curvature="0"
           id="path845"
           d="m 423.51172,107.76563 c -0.11719,0 -0.21094,0.0977 -0.21094,0.21875 0,0.11718 0.0937,0.21484 0.21094,0.21484 0.11719,0 0.21484,-0.0977 0.21484,-0.21484 0,-0.1211 -0.0976,-0.21875 -0.21484,-0.21875 z m 0,0.69921 c -0.26172,0 -0.47266,-0.21484 -0.47266,-0.48046 0,-0.26563 0.21094,-0.48047 0.47266,-0.48047 0.26172,0 0.47656,0.21484 0.47656,0.48047 0,0.26562 -0.21484,0.48046 -0.47656,0.48046"
           style="fill:#fdfdfd;fill-opacity:1;fill-rule:nonzero;stroke:none" />
        <path
           inkscape:connector-curvature="0"
           id="path847"
           d="m 433.84375,101.36719 c 0.11719,-0.0195 0.21094,-0.0742 0.28125,-0.16016 0.0742,-0.0859 0.10937,-0.1875 0.10937,-0.30469 0,-0.10546 -0.0312,-0.19531 -0.0898,-0.26953 -0.0625,-0.0781 -0.16016,-0.13281 -0.30078,-0.17578 z m -0.33203,-2.484378 c -0.0899,0.03125 -0.16406,0.08594 -0.21485,0.160157 -0.0547,0.07422 -0.082,0.15625 -0.082,0.246093 0,0.08594 0.0234,0.160157 0.0742,0.230469 0.0469,0.07031 0.125,0.128907 0.22266,0.171875 z m 0,2.453128 v -0.97656 c -0.30078,-0.0898 -0.51953,-0.21875 -0.66016,-0.398442 -0.14453,-0.175782 -0.21094,-0.390626 -0.21094,-0.640626 0,-0.257812 0.0781,-0.472656 0.23829,-0.644531 0.15625,-0.171875 0.36718,-0.273437 0.63281,-0.300781 v -0.230469 h 0.33203 V 98.375 c 0.24609,0.03125 0.44141,0.113281 0.58594,0.253906 0.14453,0.140625 0.23437,0.324219 0.27343,0.558594 l -0.58203,0.07813 c -0.0351,-0.183594 -0.125,-0.308594 -0.27734,-0.375 v 0.914063 c 0.37109,0.101562 0.62109,0.230477 0.75391,0.390617 0.13281,0.16407 0.20312,0.3711 0.20312,0.6211 0,0.28125 -0.0859,0.51953 -0.25391,0.71484 -0.16796,0.19141 -0.40234,0.30859 -0.70312,0.35156 v 0.4375 h -0.33203 v -0.42578 c -0.26563,-0.0312 -0.48047,-0.13281 -0.64844,-0.30078 -0.16406,-0.16797 -0.26953,-0.40625 -0.31641,-0.71094 l 0.60157,-0.0664 c 0.0234,0.125 0.0703,0.23437 0.13672,0.32422 0.0703,0.0898 0.14453,0.15234 0.22656,0.19531"
           style="fill:#fdfdfd;fill-opacity:1;fill-rule:nonzero;stroke:none" />
      </g>
    </g>
  </g>
</svg>
