<?xml version="1.0" encoding="UTF-8" standalone="no"?>
<!-- Created with Inkscape (http://www.inkscape.org/) -->

<svg
   xmlns:dc="http://purl.org/dc/elements/1.1/"
   xmlns:cc="http://creativecommons.org/ns#"
   xmlns:rdf="http://www.w3.org/1999/02/22-rdf-syntax-ns#"
   xmlns:svg="http://www.w3.org/2000/svg"
   xmlns="http://www.w3.org/2000/svg"
   xmlns:sodipodi="http://sodipodi.sourceforge.net/DTD/sodipodi-0.dtd"
   xmlns:inkscape="http://www.inkscape.org/namespaces/inkscape"
   width="11.540919mm"
   height="9.5194902mm"
   viewBox="0 0 11.540919 9.5194903"
   version="1.1"
   id="svg2415"
   inkscape:version="0.92.5 (2060ec1f9f, 2020-04-08)"
   sodipodi:docname="laptop.svg">
  <defs
     id="defs2409">
    <clipPath
       id="clip15">
      <path
         d="m 326,104 h 15 v 21.5625 h -15 z m 0,0"
         id="path649"
         inkscape:connector-curvature="0" />
    </clipPath>
    <clipPath
       id="clip16">
      <path
         d="M 325.69141,98.574219 H 346 V 114 h -20.30859 z m 0,0"
         id="path652"
         inkscape:connector-curvature="0" />
    </clipPath>
    <clipPath
       id="clip17">
      <path
         inkscape:connector-curvature="0"
         id="path655"
         d="M 419.03516,101 H 443 v 18.49609 h -23.96484 z m 0,0" />
    </clipPath>
    <clipPath
       id="clip18">
      <path
         inkscape:connector-curvature="0"
         id="path658"
         d="m 430,97.007812 h 7 V 104 h -7 z m 0,0" />
    </clipPath>
    <clipPath
       id="clip19">
      <path
         inkscape:connector-curvature="0"
         id="path661"
         d="m 442,104 h 4.76953 v 5 H 442 Z m 0,0" />
    </clipPath>
    <clipPath
       id="clip20">
      <path
         inkscape:connector-curvature="0"
         id="path664"
         d="m 514.42969,110.53125 h 29.23047 v 11.05078 h -29.23047 z m 0,0" />
    </clipPath>
    <clipPath
       id="clip21">
      <path
         inkscape:connector-curvature="0"
         id="path667"
         d="m 525,94.597656 h 18 V 111 h -18 z m 0,0" />
    </clipPath>
  </defs>
  <sodipodi:namedview
     id="base"
     pagecolor="#ffffff"
     bordercolor="#666666"
     borderopacity="1.0"
     inkscape:pageopacity="0.0"
     inkscape:pageshadow="2"
     inkscape:zoom="9.6616368"
     inkscape:cx="13.101694"
     inkscape:cy="12.180249"
     inkscape:document-units="mm"
     inkscape:current-layer="layer1"
     showgrid="false"
     fit-margin-top="0"
     fit-margin-left="0"
     fit-margin-right="0"
     fit-margin-bottom="0"
     inkscape:window-width="1848"
     inkscape:window-height="1016"
     inkscape:window-x="72"
     inkscape:window-y="27"
     inkscape:window-maximized="1" />
  <metadata
     id="metadata2412">
    <rdf:RDF>
      <cc:Work
         rdf:about="">
        <dc:format>image/svg+xml</dc:format>
        <dc:type
           rdf:resource="http://purl.org/dc/dcmitype/StillImage" />
        <dc:title></dc:title>
      </cc:Work>
    </rdf:RDF>
  </metadata>
  <g
     inkscape:label="Calque 1"
     inkscape:groupmode="layer"
     id="layer1"
     transform="translate(5.5259432,39.529388)">
    <g
       transform="translate(-311.76696,-160.08852)"
       id="layer1-5"
       inkscape:label="Calque 1">
      <path
         sodipodi:nodetypes="ccccccssccccccccsccscccccccscccscscscscccscssscccccccss"
         inkscape:connector-curvature="0"
         id="path5435"
         d="m 307.10391,130.05953 c -0.28077,-0.076 -0.51264,-0.35086 -0.53543,-0.63473 l -0.009,-0.11627 h 2.03127 2.03128 l 0.0116,0.0496 c 0.0214,0.0909 0.0829,0.17027 0.15865,0.20465 0.0696,0.0316 0.1411,0.0336 1.2192,0.0336 1.0781,0 1.14967,-0.002 1.2192,-0.0336 0.0757,-0.0344 0.13725,-0.11377 0.15865,-0.20465 l 0.0116,-0.0496 h 2.03127 2.03127 l -0.009,0.11627 c -0.0195,0.24257 -0.18451,0.47284 -0.42306,0.59028 l -0.1219,0.06 -4.86132,0.003 c -3.81404,0.002 -4.87907,-0.001 -4.94375,-0.0189 z m 0.1498,-3.65042 c 0.005,-2.61356 0.007,-2.79547 0.0363,-2.85817 0.0489,-0.10398 0.13992,-0.19625 0.23889,-0.24234 l 0.0903,-0.0421 h 4.39197 4.39197 l 0.0904,0.0421 c 0.0989,0.0461 0.18995,0.13838 0.23889,0.24234 0.0296,0.0627 0.0318,0.24461 0.0363,2.85817 l 0.005,2.7912 h -4.76228 -4.7623 z m 8.83526,2.16521 c 0.11293,-0.0666 0.10681,0.0686 0.10681,-2.35004 0,-2.42847 0.008,-2.2645 -0.10895,-2.33338 -0.0458,-0.0271 -0.38134,-0.0296 -4.07561,-0.0296 -3.69426,0 -4.02978,0.002 -4.0756,0.0296 -0.11661,0.0689 -0.10895,-0.096 -0.10895,2.34235 0,2.43163 -0.007,2.27124 0.1059,2.34148 0.0434,0.027 0.38361,0.0294 4.07583,0.0299 3.76523,4.7e-4 4.03186,-10e-4 4.08055,-0.0303 z m -3.48254,-1.331 c -0.20319,-0.20337 -0.37356,-0.36963 -0.37861,-0.36945 -0.005,2.1e-4 -0.0781,0.13354 -0.16223,0.29637 -0.0841,0.16283 -0.1558,0.29331 -0.15915,0.28996 -0.008,-0.008 -0.63474,-1.92213 -0.63474,-1.93924 0,-0.0152 1.94668,0.6164 1.94748,0.63187 2.7e-4,0.006 -0.0461,0.0325 -0.1032,0.0601 -0.0571,0.0277 -0.1879,0.0953 -0.29078,0.15021 l -0.18707,0.0998 0.37622,0.37654 0.37622,0.37655 -0.19786,0.19848 c -0.10884,0.10917 -0.20213,0.19848 -0.20736,0.19848 -0.006,0 -0.17573,-0.1664 -0.37891,-0.36976 z"
         style="fill:#ffffff;fill-opacity:1;stroke-width:0.01803685" />
    </g>
  </g>
</svg>
