<?xml version="1.0" encoding="UTF-8" standalone="no"?>
<!-- Created with Inkscape (http://www.inkscape.org/) -->

<svg
   xmlns:dc="http://purl.org/dc/elements/1.1/"
   xmlns:cc="http://creativecommons.org/ns#"
   xmlns:rdf="http://www.w3.org/1999/02/22-rdf-syntax-ns#"
   xmlns:svg="http://www.w3.org/2000/svg"
   xmlns="http://www.w3.org/2000/svg"
   xmlns:sodipodi="http://sodipodi.sourceforge.net/DTD/sodipodi-0.dtd"
   xmlns:inkscape="http://www.inkscape.org/namespaces/inkscape"
   width="11.540919mm"
   height="9.5194902mm"
   viewBox="0 0 11.540919 9.5194903"
   version="1.1"
   id="svg2415"
   inkscape:version="0.92.5 (2060ec1f9f, 2020-04-08)"
   sodipodi:docname="liveyourdream.svg">
  <defs
     id="defs2409">
    <clipPath
       id="clip15">
      <path
         d="m 326,104 h 15 v 21.5625 h -15 z m 0,0"
         id="path649"
         inkscape:connector-curvature="0" />
    </clipPath>
    <clipPath
       id="clip16">
      <path
         d="M 325.69141,98.574219 H 346 V 114 h -20.30859 z m 0,0"
         id="path652"
         inkscape:connector-curvature="0" />
    </clipPath>
    <clipPath
       id="clip17">
      <path
         inkscape:connector-curvature="0"
         id="path655"
         d="M 419.03516,101 H 443 v 18.49609 h -23.96484 z m 0,0" />
    </clipPath>
    <clipPath
       id="clip18">
      <path
         inkscape:connector-curvature="0"
         id="path658"
         d="m 430,97.007812 h 7 V 104 h -7 z m 0,0" />
    </clipPath>
    <clipPath
       id="clip19">
      <path
         inkscape:connector-curvature="0"
         id="path661"
         d="m 442,104 h 4.76953 v 5 H 442 Z m 0,0" />
    </clipPath>
    <clipPath
       id="clip20">
      <path
         inkscape:connector-curvature="0"
         id="path664"
         d="m 514.42969,110.53125 h 29.23047 v 11.05078 h -29.23047 z m 0,0" />
    </clipPath>
    <clipPath
       id="clip21">
      <path
         inkscape:connector-curvature="0"
         id="path667"
         d="m 525,94.597656 h 18 V 111 h -18 z m 0,0" />
    </clipPath>
  </defs>
  <sodipodi:namedview
     id="base"
     pagecolor="#ffffff"
     bordercolor="#666666"
     borderopacity="1.0"
     inkscape:pageopacity="0.0"
     inkscape:pageshadow="2"
     inkscape:zoom="9.6616368"
     inkscape:cx="28.523512"
     inkscape:cy="14.457296"
     inkscape:document-units="mm"
     inkscape:current-layer="layer1"
     showgrid="false"
     fit-margin-top="0"
     fit-margin-left="0"
     fit-margin-right="0"
     fit-margin-bottom="0"
     inkscape:window-width="1848"
     inkscape:window-height="1016"
     inkscape:window-x="72"
     inkscape:window-y="27"
     inkscape:window-maximized="1" />
  <metadata
     id="metadata2412">
    <rdf:RDF>
      <cc:Work
         rdf:about="">
        <dc:format>image/svg+xml</dc:format>
        <dc:type
           rdf:resource="http://purl.org/dc/dcmitype/StillImage" />
        <dc:title></dc:title>
      </cc:Work>
    </rdf:RDF>
  </metadata>
  <g
     inkscape:label="Calque 1"
     inkscape:groupmode="layer"
     id="layer1"
     transform="translate(5.5259432,39.529388)">
    <g
       transform="translate(-21.113738,-237.94584)"
       id="layer1-67"
       inkscape:label="Calque 1">
      <g
         transform="matrix(0.055181,0,0,0.055181,24.864941,196.21111)"
         id="g834">
        <path
           inkscape:connector-curvature="0"
           id="path840"
           d="m -102.41244,212.21473 c -4.11187,-1.16442 -7.09088,-4.91353 -9.18614,-11.56086 -0.43575,-1.38245 -0.875,-3.01893 -0.97612,-3.63663 -0.10111,-0.61771 -0.28294,-1.18435 -0.40407,-1.25921 -0.12113,-0.0749 -1.2121,0.84796 -2.42437,2.05071 -2.77521,2.75338 -4.61198,3.72415 -7.09894,3.75195 -4.16195,0.0465 -6.25654,-3.22032 -6.17959,-9.63807 0.0418,-3.48716 0.70982,-6.14772 2.38081,-9.48219 2.49993,-4.98861 6.7008,-8.33271 11.47895,-9.13781 l 1.96957,-0.33186 0.69117,-4.48084 c 1.09794,-7.11795 3.01149,-15.76068 3.84743,-17.3772 0.73047,-1.41257 3.60406,-2.22912 5.23292,-1.48696 0.70422,0.32086 1.24597,1.46678 1.06872,2.26059 -0.0591,0.26458 -0.35199,3.51715 -0.6509,7.22794 -0.91367,11.34246 -1.93209,17.85183 -3.58542,22.91666 -1.98624,6.08468 0.71885,20.24959 4.61023,24.14097 1.45662,1.45662 2.466522,1.62061 4.433757,0.71999 2.713802,-1.24242 6.251829,-5.37504 14.986379,-17.50496 l 3.064285,-4.25546 0.418888,-2.42732 c 0.230389,-1.33503 0.6501,-5.43514 0.932693,-9.11135 0.282594,-3.67622 0.59453,-6.89438 0.693188,-7.15148 0.563988,-1.46973 4.348588,-1.66721 4.348588,-0.22691 0,0.73552 0.504471,1.07141 1.283542,0.85463 0.944022,-0.26268 2.198433,0.10416 2.861516,0.83682 0.299212,0.33061 1.559658,2.32752 2.80099,4.43757 1.24133,2.11005 2.760631,4.40698 3.376224,5.10429 1.122397,1.27139 2.981939,2.45242 3.427643,2.17696 0.13091,-0.0809 0.174537,-1.18674 0.09695,-2.45741 -0.354894,-5.81214 2.390211,-11.34618 6.665799,-13.43803 1.845672,-0.90301 3.528393,-0.99924 4.360182,-0.24935 0.567905,0.51199 0.582589,0.65373 0.452226,4.36563 -0.08253,2.35 -0.309967,4.5028 -0.586996,5.55625 -0.604555,2.29892 -1.994861,5.17384 -3.155162,6.52435 -0.519978,0.60521 -0.945414,1.35502 -0.945414,1.66624 0,0.83278 2.367023,3.08431 3.603434,3.42761 1.321237,0.36685 2.899249,0.34269 4.069482,-0.0623 1.036836,-0.35883 1.031553,-0.32711 0.544346,-3.26844 -0.861907,-5.20346 2.349275,-13.22914 7.256669,-18.13653 3.566853,-3.56685 8.781616,-5.23348 10.096442,-3.2268 0.322239,0.4918 0.430953,1.29531 0.430953,3.18521 0,2.24412 0.06756,2.60779 0.602578,3.24362 0.371986,0.44208 0.959012,2.02813 1.533996,4.14461 1.600806,5.89245 1.838627,6.35304 2.571957,4.98114 0.360561,-0.67453 1.651016,-1.42036 2.457542,-1.42036 0.206833,0 0.648462,0.22057 0.981396,0.49017 0.513799,0.41605 0.601387,0.72611 0.579244,2.05052 l -0.02609,1.56035 0.253979,-1.19062 c 0.48896,-2.29218 0.695915,-6.48704 0.456864,-9.26042 -0.22983,-2.66642 -0.216678,-2.79674 0.327144,-3.24115 0.666165,-0.54438 1.803881,-0.60228 2.456574,-0.12502 0.430065,0.31447 1.490988,3.67425 1.490988,4.72172 0,0.98041 0.503497,0.67855 1.951247,-1.16981 0.8246901,-1.05289 1.9331805,-2.26044 2.4633076,-2.68344 1.7874509,-1.42624 4.0304985,-1.79204 4.8599779,-0.79259 0.536739,0.64674 0.9660546,0.42804 1.721395,-0.8769 1.37209748,-2.37045 3.2485569,-4.49603 4.5068121,-5.10514 1.8252149,-0.88358 3.3902756,-0.629 4.6151853,0.75071 2.7602761,3.10913 4.2228581,8.94281 4.2235201,16.84606 2.14e-4,2.52793 0.02867,2.65857 0.694753,3.18969 0.949892,0.75742 0.887683,1.68736 -0.215733,3.22482 -1.704792,2.37542 -3.9859055,3.25249 -5.9522651,2.2886 -2.1565182,-1.0571 -2.6927995,-3.00541 -2.184445,-7.93607 0.3016356,-2.92568 0.2090579,-7.60956 -0.17839,-9.02533 -0.3841512,-1.40374 -0.9073515,-0.45647 -3.25152549,5.88697 -1.70580582,4.61599 -2.86965501,6.98157 -3.74440461,7.61068 -0.7448841,0.53571 -3.2447812,0.89246 -4.3355313,0.6187 -1.2164828,-0.30532 -1.3311532,-1.09264 -0.5658115,-3.88481 0.3757586,-1.37087 0.6780213,-3.02826 0.6716924,-3.68311 l -0.011509,-1.19062 -0.4964748,0.93893 c -0.2730606,0.51642 -1.2910344,3.07626 -2.2621637,5.68854 -0.9711299,2.61229 -1.9948949,5.12455 -2.2750389,5.58281 -0.958739,1.56832 -3.770013,2.1732 -5.129662,1.1037 -0.810239,-0.63734 -0.786384,-0.0245 -0.255601,-6.56711 l 0.13952,-1.71979 -0.493601,1.47318 c -0.964523,2.87867 -2.645236,4.25316 -5.200722,4.25316 -2.550064,0 -4.148349,-1.19989 -5.704485,-4.28258 -0.437568,-0.86683 -0.844778,-1.57605 -0.904907,-1.57605 -0.06013,0 -0.547746,0.72172 -1.083593,1.60382 -1.903331,3.13322 -4.765363,5.76253 -7.426807,6.82291 -0.711994,0.28368 -2.127969,0.87574 -3.146615,1.31569 -5.591104,2.41481 -11.519768,1.15673 -14.831664,-3.14733 l -1.153242,-1.49872 -2.066951,-0.11966 c -3.821642,-0.22123 -6.790873,-2.29901 -9.352569,-6.54465 -0.652031,-1.08065 -1.31731,-2.00875 -1.478402,-2.06245 -0.534627,-0.17821 -0.902533,3.10901 -1.156179,10.33042 -0.285059,8.11569 -0.385159,8.54156 -2.216001,9.42786 -1.609755,0.77927 -3.516011,0.7246 -4.786011,-0.13724 -0.549582,-0.37296 -1.081522,-0.58132 -1.18209,-0.46302 -0.100568,0.11829 -0.873559,1.34617 -1.717757,2.72862 -3.657576,5.9896 -8.029422,10.95844 -11.739145,13.34219 -3.286061,2.11152 -6.735704,2.92071 -9.32514,2.18742 z m -17.73701,-17.24899 c 1.56895,-1.70212 3.29143,-4.46253 4.99409,-8.00342 1.42136,-2.95589 1.48755,-3.18986 1.7199,-6.07982 0.13291,-1.6531 0.17509,-3.17909 0.0937,-3.39109 -0.25135,-0.65504 -1.78353,-0.44702 -2.89292,0.39276 -2.50196,1.89391 -4.85483,5.89022 -5.64081,9.58082 -0.57069,2.67965 -0.27404,8.69096 0.42888,8.69096 0.11001,0 0.69372,-0.5356 1.29713,-1.19021 z m 85.206493,-20.71862 c 0.621257,-1.41082 1.602399,-3.45337 2.180317,-4.539 1.043544,-1.96032 1.64836,-4.50842 1.070116,-4.50842 -0.54329,0 -2.227191,2.27223 -3.260413,4.39955 -1.033934,2.12878 -2.362163,6.66446 -2.343793,8.00365 l 0.0095,0.69368 0.607346,-0.74217 c 0.334041,-0.40819 1.11565,-1.89647 1.73691,-3.30729 z m -59.64558,9.33861 c -1.303922,-0.70069 -2.486208,-2.00981 -3.317542,-3.67346 -0.675463,-1.35172 -0.7835,-1.86454 -0.7835,-3.71903 0,-2.78438 0.499004,-4.67507 2.122321,-8.04128 2.070296,-4.2931 5.913477,-9.7397 10.801162,-15.30751 l 2.368397,-2.69797 0.181657,-2.99058 c 0.09991,-1.64481 0.141817,-3.58185 0.09312,-4.30452 l -0.08854,-1.31395 -1.228576,2.11924 c -2.235537,3.85621 -5.509705,6.1972 -8.667542,6.1972 -2.569442,0 -3.5615,-1.70915 -3.532206,-6.08542 0.02066,-3.0884 0.724826,-9.23046 1.101392,-9.60702 0.580676,-0.58068 0.751136,0.35399 0.894175,4.90297 0.159319,5.06675 0.371012,6.30934 1.269484,7.45156 0.888633,1.12971 1.883974,0.94244 3.430646,-0.64547 2.74773,-2.82099 5.096351,-6.7532 6.605368,-11.05913 0.766472,-2.1871 1.140899,-2.90503 1.674765,-3.21122 0.616037,-0.35332 0.732271,-0.34968 1.116973,0.035 0.357082,0.35708 0.477999,1.57068 0.718113,7.20738 0.188701,4.42976 0.386086,6.77678 0.569736,6.77449 0.271698,-0.003 5.029348,-5.10223 7.279664,-7.8017 0.606541,-0.72761 1.260797,-1.69217 1.453906,-2.14348 0.843775,-1.97197 3.269782,-2.64364 6.511605,-1.80282 1.796116,0.46586 1.966431,0.46698 4.103704,0.027 3.262865,-0.67163 3.554002,-0.81603 3.554002,-1.76274 0,-1.40221 1.828382,-2.48796 2.572951,-1.5279 0.141074,0.1819 0.389427,2.23573 0.5519,4.56406 0.303318,4.34673 0.683257,6.21771 1.262631,6.21771 0.439883,0 1.9738,-2.13249 2.949911,-4.10104 0.90741,-1.83 1.415265,-3.19625 2.187819,-5.8858 0.45317,-1.57765 0.686935,-1.98751 1.320416,-2.3151 0.962446,-0.4977 2.749053,-0.51718 3.149772,-0.0343 0.214337,0.25826 0.251818,1.54328 0.12927,4.43177 -0.17862,4.21007 0.102122,6.776 0.80521,7.35951 0.792927,0.65807 4.382338,-3.45369 6.915322,-7.92166 1.629912,-2.87504 1.843016,-3.11653 3.076289,-3.48603 0.921536,-0.27609 1.104813,-0.24584 1.850517,0.30548 0.530704,0.39237 0.938477,0.52688 1.136486,0.37489 1.613911,-1.23887 3.786849,-2.4796 5.024234,-2.86881 2.33141,-0.73332 5.580716,-0.49803 7.861485,0.56927 2.049084,0.95889 2.576243,1.65164 1.965788,2.58332 -0.222578,0.3397 -0.952389,0.8268 -1.6218,1.08245 -1.036688,0.39592 -1.413915,0.41939 -2.544715,0.15837 -4.696479,-1.08407 -8.078701,1.06816 -10.952647,6.9696 -0.637807,1.30968 -1.497177,3.56273 -1.90971,5.00676 -0.841436,2.94535 -1.334421,3.5287 -3.192722,3.77795 -2.267272,0.30411 -2.893523,-0.935 -2.058212,-4.07241 0.20107,-0.75522 0.305215,-1.43349 0.231434,-1.50727 -0.07378,-0.0738 -0.753052,0.33313 -1.509491,0.90424 -1.954262,1.47548 -3.662635,2.00803 -6.038355,1.88231 -0.799129,-0.0423 -2.721835,-1.61473 -2.983857,-2.44029 -0.08878,-0.27972 -0.271669,-0.50858 -0.406418,-0.50858 -0.13475,0 -0.963137,0.70707 -1.840855,1.57127 -0.877721,0.86419 -2.223661,1.87842 -2.990977,2.25384 -2.988202,1.46199 -3.873992,0.0627 -4.823018,-7.61915 -0.151228,-1.22409 -0.188725,-1.27283 -0.851379,-1.10651 -0.381251,0.0957 -1.090165,0.33985 -1.575361,0.54257 -0.794647,0.33203 -0.861729,0.44181 -0.676111,1.10652 0.113337,0.40585 0.197818,1.74995 0.187738,2.98687 -0.02365,2.90358 -0.723334,4.75779 -2.54911,6.75548 -1.555038,1.70146 -3.078004,2.6651 -5.035629,3.18623 -4.062693,1.08151 -6.552139,-0.61052 -6.552139,-4.45338 0,-0.81859 -0.103736,-1.55246 -0.230524,-1.63082 -0.308438,-0.19062 -5.8444,5.91959 -5.973866,6.59353 -0.05591,0.29105 -0.234825,2.25558 -0.397597,4.36563 -0.371142,4.81124 -0.9197,7.31423 -2.909075,13.27371 -2.434233,7.29212 -4.671862,11.48642 -7.221231,13.53578 -1.223142,0.98325 -3.314311,1.24535 -4.566666,0.57237 z m 3.968628,-0.51259 c 2.733114,-1.60171 5.534118,-6.99372 8.303157,-15.98381 1.434087,-4.65597 1.829739,-6.71843 2.174134,-11.33331 0.160806,-2.15478 0.369539,-4.11882 0.463852,-4.36455 0.279498,-0.7282 6.149001,-6.84542 6.412164,-6.68278 0.132884,0.0821 0.242271,0.82691 0.243083,1.65507 0.0021,2.09173 0.4073,3.34177 1.336969,4.12403 1.03237,0.86868 2.312241,1.09051 4.155781,0.72027 3.311687,-0.66508 5.61248,-2.44697 7.133717,-5.52485 0.950868,-1.92386 0.995858,-2.13276 0.950736,-4.41449 -0.02606,-1.31728 -0.08558,-2.74484 -0.132292,-3.17236 -0.07829,-0.71653 0.01847,-0.81468 1.237988,-1.2557 2.348476,-0.84928 2.303799,-0.89995 2.636068,2.98975 0.166079,1.9442 0.779198,4.28384 1.361334,5.19481 0.882621,1.38119 3.470698,0.32944 6.311403,-2.56486 0.722132,-0.73576 1.404323,-1.33774 1.515975,-1.33774 0.111654,0 0.448355,0.48092 0.748223,1.06871 1.468895,2.87927 5.452478,2.83325 8.949425,-0.10338 1.381215,-1.15991 1.744536,-1.21625 1.533033,-0.23773 -0.08649,0.40019 -0.305464,1.54445 -0.486592,2.54281 -0.321448,1.77178 -0.314555,1.82716 0.288028,2.3151 0.75306,0.60979 1.647962,0.63562 2.816151,0.0813 0.816589,-0.3875 0.954251,-0.64819 1.851292,-3.50573 1.752632,-5.58306 4.339696,-9.66439 7.181826,-11.32999 1.424615,-0.83487 3.914577,-1.09872 5.892028,-0.62434 1.182799,0.28375 1.529262,0.26722 2.547279,-0.12157 1.973368,-0.75363 2.143175,-1.89124 0.412001,-2.76016 -2.122808,-1.06549 -3.725603,-1.41493 -5.951474,-1.29753 -2.478519,0.13073 -4.422341,0.89052 -6.723851,2.62817 l -1.413891,1.0675 -0.632434,-0.6824 c -0.703675,-0.75928 -0.999223,-0.81253 -2.19542,-0.39553 -0.636513,0.22189 -1.104289,0.77629 -2.064964,2.44739 -2.552452,4.44 -4.996117,7.58581 -6.822017,8.78218 -0.544153,0.35654 -0.771178,0.3854 -1.071459,0.13619 -0.730885,-0.60659 -1.018405,-3.11922 -0.851512,-7.44135 0.177364,-4.5933 0.133038,-4.74045 -1.427895,-4.74045 -1.499291,0 -2.221405,0.7461 -2.745468,2.83666 -0.599868,2.39298 -1.823344,5.40553 -2.926228,7.20522 -0.93912,1.53246 -2.119442,2.9227 -2.481389,2.9227 -0.675743,0 -1.304446,-3.14208 -1.561759,-7.80521 -0.184171,-3.33763 -0.208089,-3.44217 -0.806929,-3.52699 -0.871439,-0.12343 -1.631826,0.66119 -1.631826,1.68382 0,0.97844 -0.355002,1.18361 -3.175,1.83498 -2.16626,0.50037 -3.234978,0.50154 -4.870696,0.005 -2.746949,-0.83332 -5.302514,-0.17081 -6.019665,1.56054 -0.704509,1.70083 -8.993968,10.80458 -9.42294,10.34857 -0.136892,-0.14552 -0.381606,-3.35114 -0.543806,-7.1236 -0.214968,-4.99977 -0.386122,-6.9154 -0.631407,-7.067 -0.674883,-0.4171 -1.387271,0.50312 -2.19879,2.84024 -1.545,4.44951 -4.61536,9.4704 -7.224083,11.81338 -1.25467,1.12687 -2.566043,1.33167 -3.304181,0.51603 -0.993412,-1.0977 -1.295169,-2.7072 -1.436105,-7.65978 -0.07557,-2.65575 -0.240646,-4.82864 -0.366826,-4.82864 -0.12618,0 -0.233191,0.14883 -0.2378,0.33073 -0.0046,0.1819 -0.179432,1.58088 -0.388493,3.10885 -0.446238,3.26146 -0.507881,7.92408 -0.123076,9.30956 0.687583,2.47562 3.075715,3.00343 6.297221,1.39177 2.269927,-1.13559 3.82606,-2.80622 5.36095,-5.75538 1.710529,-3.28663 1.837085,-2.85847 1.403308,4.74763 l -0.152963,2.68212 -2.099004,2.34496 c -6.06997,6.78125 -10.705094,13.73329 -12.41239,18.61684 -0.810564,2.31855 -1.006065,5.85479 -0.418944,7.5779 0.603782,1.772 1.614078,3.13143 3.018587,4.06174 1.516602,1.00455 2.878833,1.05031 4.417856,0.14838 z m -2.407033,-3.45605 c -1.127263,-1.72042 -1.467517,-4.44424 -0.869183,-6.95804 0.428072,-1.79847 2.612895,-6.30695 4.353261,-8.98315 2.996517,-4.60782 5.669952,-7.63827 5.669952,-6.42713 0,0.13814 -0.244671,1.51901 -0.543713,3.06861 -1.354101,7.01679 -5.05345,16.94158 -7.219289,19.36826 -0.674868,0.75615 -0.856533,0.74719 -1.391028,-0.0686 z m 2.947114,-3.1984 c 2.51287,-5.03237 5.691968,-15.1904 5.66407,-18.09815 l -0.0089,-0.92605 -1.062894,1.19063 c -1.450769,1.62511 -5.083562,7.06216 -6.200344,9.27979 -2.100755,4.17154 -2.719142,7.54964 -1.838783,10.04483 0.948973,2.68968 1.472258,2.46331 3.446833,-1.49105 z m 21.645968,-29.40443 c -0.374674,-1.49282 1.014939,-8.12278 1.894054,-9.03667 0.480978,-0.50001 1.078187,-0.21688 1.731801,0.82104 1.501373,2.38413 -0.542994,8.93857 -2.787991,8.93857 -0.494406,0 -0.701202,-0.17843 -0.837864,-0.72294 z m 1.959509,-0.13695 c 1.999517,-2.13526 2.548009,-7.76048 0.845532,-8.67161 -0.4,-0.21408 -0.579099,-0.1447 -0.903124,0.34982 -0.856088,1.30656 -1.981824,7.17943 -1.604227,8.36913 0.227865,0.71794 0.964848,0.69694 1.661819,-0.0473 z m 86.258613,35.12247 c -0.855432,-0.48154 -1.263422,-1.16338 -1.263422,-2.11145 0,-1.17551 0.690959,-2.11337 2.404954,-3.26428 1.460566,-0.98075 1.819428,-1.1056 3.177892,-1.1056 2.069391,0 3.018946,0.75413 2.955422,2.34716 -0.106966,2.68236 -1.886395,4.3353 -4.80486,4.4633 -1.20342,0.0528 -1.973934,-0.0499 -2.469986,-0.32913 z"
           style="fill:#d13290;stroke-width:0.26458335" />
        <path
           inkscape:connector-curvature="0"
           id="path838"
           d="m -95.037765,182.92475 c -1.404509,-0.9303 -2.414805,-2.28973 -3.018587,-4.06173 -0.587121,-1.72311 -0.39162,-5.25936 0.418944,-7.5779 1.707296,-4.88355 6.34242,-11.83559 12.41239,-18.61684 l 2.099004,-2.34497 0.152963,-2.68211 c 0.305097,-5.34973 0.301601,-6.59831 -0.01879,-6.70757 -0.170246,-0.0581 -0.793287,0.82391 -1.384533,1.95994 -1.53489,2.94916 -3.091024,4.61978 -5.360951,5.75538 -3.221506,1.61165 -5.609637,1.08384 -6.297221,-1.39178 -0.384804,-1.38547 -0.323162,-6.04809 0.123077,-9.30955 0.20906,-1.52797 0.383881,-2.92695 0.388493,-3.10886 0.0046,-0.1819 0.111619,-0.33072 0.237799,-0.33072 0.12618,0 0.291253,2.17289 0.366826,4.82864 0.180663,6.34868 0.785054,8.13594 2.751294,8.13594 2.313239,0 7.055197,-6.59101 9.213075,-12.80557 0.811519,-2.33713 1.523907,-3.25734 2.198791,-2.84024 0.245284,0.15159 0.416438,2.06723 0.631407,7.06699 0.1622,3.77247 0.406913,6.97809 0.543806,7.12361 0.428971,0.45601 8.718431,-8.64774 9.42294,-10.34857 0.71715,-1.73135 3.272715,-2.39386 6.019665,-1.56054 1.635717,0.49621 2.704436,0.49504 4.870696,-0.005 2.819998,-0.65137 3.175,-0.85654 3.175,-1.83499 0,-1.02263 0.760386,-1.80724 1.631826,-1.68381 0.598839,0.0848 0.622757,0.18936 0.806928,3.52699 0.257313,4.66313 0.886016,7.80521 1.561759,7.80521 0.361948,0 1.54227,-1.39024 2.48139,-2.9227 1.102884,-1.7997 2.326359,-4.81225 2.926228,-7.20522 0.524073,-2.09057 1.246187,-2.83667 2.745478,-2.83667 1.560933,0 1.605259,0.14715 1.427895,4.74045 -0.166893,4.32213 0.120627,6.83476 0.851512,7.44135 1.046276,0.86833 4.530225,-3.06798 7.893476,-8.91837 0.960675,-1.6711 1.428451,-2.2255 2.064964,-2.44739 1.196197,-0.417 1.491745,-0.36375 2.19542,0.39553 l 0.632434,0.6824 1.413891,-1.0675 c 4.05385,-3.06068 8.33343,-3.50995 12.675325,-1.33064 1.731174,0.86892 1.561367,2.00653 -0.412001,2.76016 -1.018017,0.38879 -1.36448,0.40532 -2.547279,0.12157 -1.977451,-0.47438 -4.467413,-0.21053 -5.892028,0.62434 -2.84213,1.6656 -5.429194,5.74693 -7.181826,11.32999 -0.897041,2.85754 -1.034703,3.11823 -1.851292,3.50573 -1.168189,0.55434 -2.063091,0.52851 -2.816151,-0.0813 -0.602583,-0.48794 -0.609476,-0.54332 -0.288028,-2.3151 0.181128,-0.99836 0.400097,-2.14262 0.486592,-2.54281 0.211503,-0.97852 -0.151818,-0.92218 -1.533033,0.23773 -1.712404,1.43803 -3.535947,2.20422 -5.250553,2.20609 -1.817804,0.002 -2.954906,-0.64441 -3.698872,-2.10271 -0.299868,-0.58779 -0.636569,-1.06871 -0.748223,-1.06871 -0.111652,0 -0.793843,0.60198 -1.515975,1.33774 -2.840705,2.8943 -5.428782,3.94605 -6.311403,2.56486 -0.582136,-0.91097 -1.195255,-3.25061 -1.361334,-5.19481 -0.332269,-3.8897 -0.287592,-3.83903 -2.636068,-2.98975 -1.219515,0.44102 -1.316278,0.53917 -1.237988,1.2557 0.04671,0.42752 0.106241,1.85508 0.132292,3.17236 0.04512,2.28173 1.32e-4,2.49063 -0.950736,4.41449 -1.521237,3.07788 -3.82203,4.85977 -7.133717,5.52485 -3.663794,0.7358 -5.48886,-0.87381 -5.49275,-4.8443 -7.94e-4,-0.82816 -0.110199,-1.57294 -0.243083,-1.65507 -0.263163,-0.16264 -6.132666,5.95458 -6.412164,6.68278 -0.09431,0.24573 -0.303046,2.20977 -0.463852,4.36455 -0.344395,4.61488 -0.740047,6.67734 -2.174134,11.33331 -4.191042,13.60682 -8.322037,18.74919 -12.721013,15.83542 z m 3.401851,-3.23911 c 2.165839,-2.42668 5.865188,-12.35147 7.219289,-19.36826 0.299042,-1.5496 0.543713,-2.93047 0.543713,-3.06861 0,-1.21114 -2.673435,1.81931 -5.669952,6.42713 -1.740366,2.6762 -3.925189,7.18468 -4.353261,8.98315 -0.598334,2.5138 -0.25808,5.23762 0.869183,6.95804 0.534495,0.81574 0.71616,0.8247 1.391028,0.0686 z m 25.2525,-32.5046 c 1.776506,-1.77651 2.68645,-6.61812 1.575409,-8.38241 -0.653614,-1.03792 -1.250823,-1.32105 -1.731801,-0.82104 -0.879115,0.91389 -2.268728,7.54385 -1.894054,9.03667 0.226541,0.90261 1.232767,0.98446 2.050446,0.16678 z m -64.869946,-2.02353 -0.64143,-0.7276 0.72761,0.64143 c 0.68005,0.59952 0.84894,0.81378 0.64143,0.81378 -0.0474,0 -0.37482,-0.32742 -0.72761,-0.72761 z m 16.15961,-0.46302 c 0.34178,-0.3638 0.68094,-0.66145 0.7537,-0.66145 0.0728,0 -0.14734,0.29765 -0.48911,0.66145 -0.34178,0.36381 -0.68094,0.66146 -0.7537,0.66146 -0.0728,0 0.14734,-0.29765 0.48911,-0.66146 z m -10.33877,-2.71198 -0.64143,-0.7276 0.7276,0.64143 c 0.68006,0.59952 0.84894,0.81378 0.64143,0.81378 -0.0474,0 -0.37481,-0.32742 -0.7276,-0.72761 z m -17.97164,-9.40935 c 0,-0.0455 0.38695,-0.43249 0.85989,-0.85989 l 0.8599,-0.77711 -0.77711,0.8599 c -0.72437,0.80154 -0.94268,0.98151 -0.94268,0.7771 z m 55.140485,-9.77294 -0.504029,-0.59531 0.595313,0.50403 c 0.327422,0.27721 0.595312,0.5451 0.595312,0.59531 0,0.21173 -0.212934,0.0554 -0.686596,-0.50403 z m 9.947013,-0.85989 c 0.341776,-0.36381 0.68094,-0.66146 0.7537,-0.66146 0.07276,0 -0.147341,0.29765 -0.489117,0.66146 -0.341775,0.3638 -0.680939,0.66146 -0.7537,0.66146 -0.07276,0 0.147342,-0.29766 0.489117,-0.66146 z m -12.964583,-1.55511 c 0,-0.0549 0.208359,-0.2633 0.46302,-0.46302 0.419645,-0.32911 0.429004,-0.31975 0.0999,0.0999 -0.345643,0.44073 -0.562916,0.58089 -0.562916,0.36312 z m -4.894792,-3.33968 c 0.26339,-0.29105 0.538422,-0.52917 0.611182,-0.52917 0.07276,0 -0.08321,0.23812 -0.346599,0.52917 -0.26339,0.29104 -0.538422,0.52916 -0.611182,0.52916 -0.07276,0 0.08321,-0.23812 0.346599,-0.52916 z m 10.7574,-7.93751 c 0,-0.3638 0.06006,-0.51263 0.133453,-0.33072 0.0734,0.1819 0.0734,0.47955 0,0.66145 -0.0734,0.18191 -0.133453,0.0331 -0.133453,-0.33073 z m -24.077083,-0.52916 c 0,-0.3638 0.0601,-0.51263 0.13345,-0.33073 0.0734,0.1819 0.0734,0.47956 0,0.66146 -0.0734,0.1819 -0.13345,0.0331 -0.13345,-0.33073 z m 18.235363,-0.68351 c 0.0127,-0.30822 0.07539,-0.37092 0.159851,-0.15985 0.07643,0.19099 0.06703,0.4192 -0.02088,0.50712 -0.08792,0.0879 -0.150452,-0.0684 -0.138964,-0.34727 z m 60.436404,-3.02066 c 0.26339,-0.29104 0.538422,-0.52917 0.611182,-0.52917 0.07276,0 -0.08321,0.23813 -0.346598,0.52917 -0.263391,0.29104 -0.538422,0.52917 -0.611183,0.52917 -0.07276,0 0.08321,-0.23813 0.346599,-0.52917 z m -110.442657,-1.74184 c 0.0127,-0.30822 0.0754,-0.37092 0.15985,-0.15985 0.0764,0.19099 0.067,0.4192 -0.0209,0.50712 -0.0879,0.0879 -0.15045,-0.0684 -0.13897,-0.34727 z m 55.867581,-1.43316 c 0,-0.50932 0.05445,-0.71768 0.121002,-0.46302 0.06655,0.25466 0.06655,0.67138 0,0.92604 -0.06655,0.25466 -0.121002,0.0463 -0.121002,-0.46302 z m -49.761271,-1.32292 c 0,-0.3638 0.0601,-0.512625 0.13345,-0.33072 0.0734,0.1819 0.0734,0.47955 0,0.66145 -0.0734,0.18191 -0.13345,0.0331 -0.13345,-0.33073 z m 49.98536,-4.387668 c 0.0127,-0.308226 0.07539,-0.370919 0.159851,-0.159853 0.07643,0.190995 0.06703,0.4192 -0.02088,0.507119 -0.08792,0.08792 -0.150452,-0.06835 -0.138964,-0.347266 z m 40.195779,-1.565452 c 0.341775,-0.363802 0.680939,-0.661459 0.7537,-0.661459 0.07276,0 -0.147342,0.297657 -0.489117,0.661459 -0.341776,0.363802 -0.68094,0.661458 -0.7537,0.661458 -0.07276,0 0.147341,-0.297656 0.489117,-0.661458 z m -90.411829,-3.439584 c 0.002,-0.727604 0.0534,-0.993857 0.11419,-0.591674 0.0608,0.402182 0.0592,0.997495 -0.004,1.322917 -0.0628,0.325421 -0.11256,-0.0036 -0.11058,-0.731243 z m 28.76391,-0.232187 c 0,-0.05494 0.20836,-0.2633 0.46302,-0.463021 0.41965,-0.329108 0.42901,-0.319749 0.0999,0.0999 -0.34565,0.44073 -0.56292,0.580887 -0.56292,0.363125 z m -34.63953,-4.55236 c 0.0127,-0.308227 0.0754,-0.37092 0.15985,-0.159854 0.0764,0.190995 0.067,0.419198 -0.0209,0.507119 -0.0879,0.08792 -0.15045,-0.06835 -0.13897,-0.347265 z m 89.143699,-1.780535 c 0,-0.04554 0.386953,-0.432488 0.859895,-0.859896 l 0.859896,-0.777105 -0.777105,0.859896 c -0.724371,0.801544 -0.942686,0.981511 -0.942686,0.777105 z m -83.282369,-4.944293 c 0,-0.509323 0.0545,-0.717682 0.121,-0.463021 0.0666,0.254662 0.0666,0.671381 0,0.926042 -0.0666,0.254661 -0.121,0.0463 -0.121,-0.463021 z m 9.76998,-11.641667 c 0,-0.363802 0.0601,-0.51263 0.13345,-0.330729 0.0734,0.181901 0.0734,0.479557 0,0.661459 -0.0734,0.181901 -0.13345,0.03307 -0.13345,-0.33073 z m 4.47703,-0.154339 c 0.0127,-0.308226 0.0754,-0.370919 0.15985,-0.159853 0.0764,0.190994 0.067,0.419198 -0.0209,0.507119 -0.0879,0.08792 -0.15045,-0.06835 -0.13896,-0.347266 z m 0.31041,-5.798786 c 0.003,-0.582083 0.0571,-0.789053 0.12041,-0.459936 0.0633,0.329118 0.0609,0.805368 -0.005,1.058334 -0.0662,0.252965 -0.11801,-0.01633 -0.11507,-0.598398 z m -0.005,-3.836458 c 0,-0.509323 0.0545,-0.717682 0.12101,-0.463021 0.0665,0.254661 0.0665,0.67138 0,0.926042 -0.0665,0.254661 -0.12101,0.0463 -0.12101,-0.463021 z m -4.80299,0.110244 c 0.0127,-0.308227 0.0754,-0.37092 0.15985,-0.159854 0.0764,0.190995 0.067,0.419198 -0.0209,0.507119 -0.0879,0.08792 -0.15045,-0.06835 -0.13896,-0.347265 z"
           style="fill:#91278e;stroke-width:0.26458335" />
        <path
           inkscape:connector-curvature="0"
           id="path836"
           d="m -126.19983,148.1068 c -2.05411,-0.55199 -3.39098,-1.41429 -5.18788,-3.34626 -2.79544,-3.00555 -4.89076,-7.41954 -6.53103,-13.75823 -0.52538,-2.03032 -0.92802,-3.10886 -1.16058,-3.10886 -0.19585,0 -0.35609,0.10367 -0.35609,0.23037 0,0.46549 -4.62248,5.12345 -6.20529,6.25292 -3.21284,2.29263 -7.41387,3.82344 -8.23615,3.00117 -0.68373,-0.68373 -0.14573,-1.23426 1.80909,-1.85121 1.02932,-0.32486 2.71511,-1.14197 3.74619,-1.8158 2.35269,-1.53753 5.68026,-5.0891 7.5112,-8.01684 l 1.40318,-2.24373 -0.40041,-3.53313 c -1.09113,-9.628 -1.32741,-14.05807 -1.33153,-24.964374 -0.01,-25.51838 2.66795,-39.893775 9.35269,-50.212837 1.91285,-2.952828 2.30036,-3.338609 3.55863,-3.542799 1.99324,-0.323457 3.29264,0.899402 5.05955,4.761508 1.72726,3.775421 2.29727,7.4101 2.28936,14.598295 -0.0181,16.390003 -4.62403,38.878698 -11.02072,53.808507 -1.73195,4.04233 -1.71554,3.7333 -0.51332,9.66987 2.39681,11.83537 5.78041,18.65576 9.73274,19.61847 0.66541,0.16208 0.91923,0.006 2.30099,-1.41486 3.4148,-3.51147 6.82144,-13.12284 10.0497,-28.35385 0.72978,-3.4431 0.81952,-4.38705 0.90562,-9.525 0.0999,-5.962151 0.36278,-7.859986 1.52037,-10.976259 0.98402,-2.649022 3.12328,-4.376814 5.4264,-4.382693 1.00521,-0.0026 1.93626,0.495342 2.19403,1.173329 0.289933,0.762593 -0.39782,7.4955 -1.47937,14.482493 -0.68585,4.43071 -0.68874,4.50917 -0.23523,6.38666 0.99746,4.12946 2.729224,7.32479 3.969789,7.32479 0.678548,0 2.370368,-1.56598 5.288116,-4.89479 l 1.391465,-1.5875 0.184362,-3.30729 c 0.247171,-4.43409 0.987909,-10.15534 2.123982,-16.405066 0.833014,-4.582543 1.012984,-5.224944 1.611932,-5.75379 0.796054,-0.702884 2.01581,-0.77392 2.636205,-0.153525 0.355608,0.355608 0.411292,0.7556 0.285451,2.050521 -0.562581,5.789137 -0.784564,10.417519 -0.794123,16.55769 -0.01087,6.98271 0.133707,8.5999 1.052594,11.77396 0.633778,2.18923 0.781482,2.2747 1.828965,1.05833 1.895612,-2.20123 4.535395,-8.05827 8.351141,-18.52917 3.114755,-8.54728 3.775509,-9.737225 5.778651,-10.406703 1.640065,-0.548129 3.466809,-0.278643 4.05986,0.598922 0.108204,0.160118 0.121793,1.490477 0.0302,2.956356 -0.179745,2.876611 0.04677,4.046495 1.024033,5.288883 0.565753,0.719241 2.887019,1.960415 3.675295,1.965172 0.31658,0.0019 0.725199,-0.912175 1.565998,-3.503144 0.625707,-1.928151 1.848924,-4.928196 2.71826,-6.666765 1.381294,-2.762419 1.867794,-3.450146 3.857964,-5.453692 1.851318,-1.863765 2.574324,-2.403668 3.864848,-2.886067 4.533453,-1.694617 9.087821,0.200096 11.304558,4.702929 0.760392,1.544574 0.866275,2.019054 0.866275,3.881884 0,1.804205 -0.114527,2.355477 -0.764246,3.678704 -1.875763,3.820205 -6.98382,7.477111 -13.523254,9.681421 l -2.116666,0.71349 -0.08187,1.1124 c -0.167153,2.27114 1.335771,5.92616 3.087577,7.50881 1.477243,1.3346 2.798331,1.69045 4.855522,1.30787 3.495813,-0.65011 7.415287,-3.05841 11.650507,-7.15858 2.438474,-2.36073 2.650027,-2.50307 3.898299,-2.62301 1.582068,-0.15202 2.651424,0.40128 2.651424,1.37187 0,0.34444 -0.552759,1.38349 -1.228352,2.309 -5.025009,6.8839 -10.707288,10.70299 -17.259292,11.60009 -5.068149,0.69392 -9.937218,-1.20554 -12.378987,-4.82913 -1.024321,-1.5201 -2.155523,-4.83428 -2.574126,-7.54164 l -0.312427,-2.02066 -2.107261,-0.3024 c -2.577389,-0.36986 -2.995795,-0.49522 -5.085178,-1.52355 -1.006121,-0.49519 -1.741416,-0.71652 -1.87542,-0.56454 -0.121235,0.1375 -0.557051,1.2025 -0.968483,2.36667 -1.223182,3.46104 -3.515908,8.79687 -5.115947,11.90625 -1.193958,2.32024 -1.900044,3.31807 -3.482028,4.92072 -2.187212,2.21579 -3.549531,2.88449 -5.876464,2.88449 -2.355356,0 -4.644779,-1.51288 -5.64456,-3.73 -0.256077,-0.56788 -0.583023,-1.0325 -0.726549,-1.0325 -0.143528,0 -0.768453,0.46779 -1.388724,1.03954 -1.393068,1.28408 -2.810068,2.02165 -4.924769,2.56341 -2.17629,0.55754 -4.025257,0.30657 -6.237847,-0.84671 -0.95405,-0.49729 -1.81617,-0.90416 -1.91582,-0.90416 -0.0996,0 -0.50546,1.31499 -0.90179,2.9222 -1.63031,6.61117 -4.29624,13.25207 -6.8804,17.1392 -2.32137,3.49184 -5.5819,5.93619 -8.84162,6.62838 -1.81505,0.38541 -3.02263,0.35367 -4.80921,-0.12643 z m -6.51647,-41.05875 c 2.98152,-9.122722 5.61563,-22.025933 6.81721,-33.394182 0.2064,-1.952713 0.34524,-6.341547 0.339,-10.715625 -0.009,-6.518556 -0.0772,-7.710223 -0.56481,-9.921876 -0.63388,-2.874727 -1.58399,-5.55625 -1.96869,-5.55625 -0.34104,0 -2.63262,4.859031 -3.50049,7.422388 -1.57195,4.642946 -2.72804,10.531288 -3.39976,17.316154 -0.784,7.918945 -0.0932,38.496881 0.86966,38.496881 0.11869,0 0.75223,-1.64137 1.40788,-3.64749 z m 83.314162,-9.481005 c 3.147259,-1.580333 5.273723,-3.452937 6.396869,-5.633204 0.72712,-1.411494 0.467407,-3.705511 -0.563867,-4.980599 -0.443164,-0.547936 -0.99378,-1.033307 -1.223592,-1.078601 -0.250899,-0.04945 -0.90143,0.531956 -1.628227,1.455209 -2.399906,3.048608 -5.635358,10.930268 -4.486921,10.930268 0.06901,0 0.746593,-0.311883 1.505738,-0.693073 z M -105.70114,79.65149 c -1.65979,-0.753292 -2.05066,-2.275998 -0.90389,-3.521252 1.41854,-1.540364 4.7485,-2.447763 5.89806,-1.60719 0.66689,0.487648 0.849713,2.296483 0.33307,3.295549 -0.84597,1.63593 -3.64175,2.597849 -5.32724,1.832893 z"
           style="fill:#30528f;stroke-width:0.26458335" />
      </g>
    </g>
  </g>
</svg>
