<?xml version="1.0" encoding="UTF-8" standalone="no"?>
<!-- Created with Inkscape (http://www.inkscape.org/) -->

<svg
   xmlns:dc="http://purl.org/dc/elements/1.1/"
   xmlns:cc="http://creativecommons.org/ns#"
   xmlns:rdf="http://www.w3.org/1999/02/22-rdf-syntax-ns#"
   xmlns:svg="http://www.w3.org/2000/svg"
   xmlns="http://www.w3.org/2000/svg"
   xmlns:sodipodi="http://sodipodi.sourceforge.net/DTD/sodipodi-0.dtd"
   xmlns:inkscape="http://www.inkscape.org/namespaces/inkscape"
   width="10.31186mm"
   height="9.5194874mm"
   viewBox="0 0 10.31186 9.5194874"
   version="1.1"
   id="svg3673"
   inkscape:version="0.92.5 (2060ec1f9f, 2020-04-08)"
   sodipodi:docname="location.svg">
  <defs
     id="defs3667">
    <clipPath
       id="clip20">
      <path
         d="m 514.42969,110.53125 h 29.23047 v 11.05078 h -29.23047 z m 0,0"
         id="path664"
         inkscape:connector-curvature="0" />
    </clipPath>
    <clipPath
       id="clip21">
      <path
         d="m 525,94.597656 h 18 V 111 h -18 z m 0,0"
         id="path667"
         inkscape:connector-curvature="0" />
    </clipPath>
  </defs>
  <sodipodi:namedview
     id="base"
     pagecolor="#ffffff"
     bordercolor="#666666"
     borderopacity="1.0"
     inkscape:pageopacity="0.0"
     inkscape:pageshadow="2"
     inkscape:zoom="0.35"
     inkscape:cx="-1031.9416"
     inkscape:cy="-219.15327"
     inkscape:document-units="mm"
     inkscape:current-layer="layer1"
     showgrid="false"
     fit-margin-top="0"
     fit-margin-left="0"
     fit-margin-right="0"
     fit-margin-bottom="0"
     inkscape:window-width="1848"
     inkscape:window-height="1016"
     inkscape:window-x="72"
     inkscape:window-y="27"
     inkscape:window-maximized="1" />
  <metadata
     id="metadata3670">
    <rdf:RDF>
      <cc:Work
         rdf:about="">
        <dc:format>image/svg+xml</dc:format>
        <dc:type
           rdf:resource="http://purl.org/dc/dcmitype/StillImage" />
        <dc:title></dc:title>
      </cc:Work>
    </rdf:RDF>
  </metadata>
  <g
     inkscape:label="Calque 1"
     inkscape:groupmode="layer"
     id="layer1"
     transform="translate(-241.28455,-81.329542)">
    <g
       transform="matrix(0.35277777,0,0,0.35277777,59.805187,47.957592)"
       style="display:inline"
       id="g3648">
      <g
         clip-path="url(#clip20)"
         id="g851"
         style="clip-rule:nonzero">
        <path
           style="fill:#fdfdfd;fill-opacity:1;fill-rule:nonzero;stroke:none"
           d="m 542.24219,114.54297 -11.40625,6.10156 c -0.19532,0.10547 -0.4375,0.11328 -0.64063,0.0156 l -5.71875,-2.75 c -0.0586,-0.0273 -0.125,-0.043 -0.1914,-0.043 h -1.33985 v -6.44531 h 2.54688 c 1.42968,0 2.77343,0.54296 3.78515,1.53125 l 1.41407,1.3789 c 0.0117,0.0117 0.0234,0.0234 0.0351,0.0312 l 1.48438,1.45313 c 0.21875,0.21093 0.33593,0.49218 0.33593,0.79297 0,0.30078 -0.11718,0.58203 -0.33593,0.79296 -0.21875,0.21094 -0.50391,0.32813 -0.8125,0.32813 -0.30469,0 -0.59375,-0.11719 -0.8125,-0.32813 l -3.11719,-3.04687 c -0.17188,-0.16406 -0.44922,-0.16406 -0.61719,0 -0.17187,0.16797 -0.17187,0.44141 0,0.60547 l 3.11719,3.04687 c 0.37891,0.375 0.89062,0.57813 1.42969,0.57813 0.54297,0 1.05078,-0.20313 1.43359,-0.57813 0.38281,-0.375 0.58984,-0.87109 0.58984,-1.39843 0,-0.52735 -0.20703,-1.02735 -0.58984,-1.39844 l -0.92187,-0.90235 9.64453,-1.67187 c 0.47265,-0.082 0.9414,0.16016 1.13672,0.58594 0.22265,0.48437 0.0273,1.0625 -0.44922,1.32031 z m -20.17188,5.17578 h -6.76562 v -8.29687 h 6.76562 z m 19.33203,-7.92187 -10.2539,1.77343 -1.25,-1.22265 c -1.17578,-1.14844 -2.74219,-1.78125 -4.40625,-1.78125 h -10.625 c -0.24219,0 -0.4375,0.1914 -0.4375,0.42578 v 9.15625 c 0,0.23437 0.19531,0.42578 0.4375,0.42578 h 7.64062 c 0.24219,0 0.4375,-0.19141 0.4375,-0.42578 v -1.42578 h 1.23828 l 5.625,2.70312 c 0.21875,0.10547 0.45703,0.16016 0.69532,0.16016 0.25781,0 0.51953,-0.0664 0.7539,-0.19141 l 11.40625,-6.10156 c 0.875,-0.46875 1.23828,-1.53125 0.82813,-2.42188 -0.36328,-0.78515 -1.22266,-1.22656 -2.08985,-1.07421"
           id="path849"
           inkscape:connector-curvature="0" />
      </g>
      <g
         clip-path="url(#clip21)"
         id="g855"
         style="clip-rule:nonzero">
        <path
           style="fill:#fdfdfd;fill-opacity:1;fill-rule:nonzero;stroke:none"
           d="m 526.48828,103.10156 7.50391,-7.464841 7.54687,7.464841 h -1.46094 c -0.24218,0 -0.4375,0.19141 -0.4375,0.42578 v 5.85157 h -3.24609 v -2.67578 c 0,-1.29688 -1.07812,-2.35157 -2.40625,-2.35157 -1.32422,0 -2.40234,1.05469 -2.40234,2.35157 v 2.67578 h -3.91797 v -5.85157 c 0,-0.23437 -0.19531,-0.42578 -0.4375,-0.42578 z m 5.94531,6.04297 v -2.4414 c 0,-0.83985 0.69922,-1.52344 1.55469,-1.52344 0.85938,0 1.55859,0.68359 1.55859,1.52344 v 2.4414 z m -5.20312,1.08985 h 12.84765 c 0.24219,0 0.44141,-0.19141 0.44141,-0.42969 v -5.84766 h 1.51953 c 0.22266,0 0.41406,-0.13672 0.51172,-0.37109 0.10156,-0.23828 0.11328,-0.58985 -0.0977,-0.80078 l -8.15234,-8.058598 c -0.082,-0.08203 -0.19531,-0.128906 -0.3125,-0.128906 -0.11719,0 -0.23047,0.04687 -0.3125,0.128906 l -8.14844,8.109378 c -0.20703,0.20312 -0.20312,0.52344 -0.10937,0.75 0.0977,0.23047 0.29687,0.37109 0.52344,0.37109 h 0.85156 v 5.84766 c 0,0.23828 0.19531,0.42969 0.4375,0.42969"
           id="path853"
           inkscape:connector-curvature="0" />
      </g>
    </g>
  </g>
</svg>
