<?xml version="1.0" encoding="UTF-8" standalone="no"?>
<!-- Created with Inkscape (http://www.inkscape.org/) -->

<svg
   xmlns:dc="http://purl.org/dc/elements/1.1/"
   xmlns:cc="http://creativecommons.org/ns#"
   xmlns:rdf="http://www.w3.org/1999/02/22-rdf-syntax-ns#"
   xmlns:svg="http://www.w3.org/2000/svg"
   xmlns="http://www.w3.org/2000/svg"
   xmlns:sodipodi="http://sodipodi.sourceforge.net/DTD/sodipodi-0.dtd"
   xmlns:inkscape="http://www.inkscape.org/namespaces/inkscape"
   width="20.637573mm"
   height="14.824861mm"
   viewBox="0 0 20.637573 14.824861"
   version="1.1"
   id="svg1708"
   inkscape:version="0.92.5 (2060ec1f9f, 2020-04-08)"
   sodipodi:docname="vr360.svg">
  <defs
     id="defs1702" />
  <sodipodi:namedview
     id="base"
     pagecolor="#ffffff"
     bordercolor="#666666"
     borderopacity="1.0"
     inkscape:pageopacity="0.0"
     inkscape:pageshadow="2"
     inkscape:zoom="1.4"
     inkscape:cx="-343.3063"
     inkscape:cy="-140.54954"
     inkscape:document-units="mm"
     inkscape:current-layer="layer1"
     showgrid="false"
     fit-margin-top="2"
     fit-margin-left="0"
     fit-margin-right="0"
     fit-margin-bottom="2"
     inkscape:window-width="1848"
     inkscape:window-height="1016"
     inkscape:window-x="72"
     inkscape:window-y="27"
     inkscape:window-maximized="1" />
  <metadata
     id="metadata1705">
    <rdf:RDF>
      <cc:Work
         rdf:about="">
        <dc:format>image/svg+xml</dc:format>
        <dc:type
           rdf:resource="http://purl.org/dc/dcmitype/StillImage" />
        <dc:title></dc:title>
      </cc:Work>
    </rdf:RDF>
  </metadata>
  <g
     inkscape:label="Calque 1"
     inkscape:groupmode="layer"
     id="layer1"
     transform="translate(-79.639546,-119.80065)">
    <path
       style="display:inline;fill:#f09134;fill-opacity:1;stroke-width:0.04581812"
       d="m 88.394113,132.59713 c -3.795667,-0.29043 -6.924414,-1.44395 -8.178719,-3.01537 -0.551653,-0.69112 -0.702889,-1.36131 -0.47117,-2.08793 0.339238,-1.06377 1.656884,-2.03982 3.735895,-2.76738 l 0.53836,-0.1884 -0.0014,0.33112 -0.0014,0.33113 -0.362673,0.20009 c -0.710576,0.39202 -1.136771,0.83398 -1.231428,1.27699 -0.276804,1.29547 1.949221,2.43242 5.514231,2.81642 0.856791,0.0923 3.403699,0.0767 4.261087,-0.026 2.766215,-0.33153 4.801492,-1.16645 5.249728,-2.15357 0.126842,-0.27932 0.115224,-0.644 -0.02977,-0.93499 -0.124922,-0.25069 -0.509623,-0.63486 -0.804073,-0.80296 l -0.176988,-0.10105 -3.44e-4,-0.378 c -1.83e-4,-0.2079 0.01065,-0.378 0.02406,-0.378 0.07028,0 0.841618,0.31778 1.285042,0.52943 1.336534,0.6379 2.225883,1.47666 2.472479,2.33183 0.10181,0.35306 0.0713,0.90854 -0.0692,1.26145 -0.725117,1.82057 -3.804211,3.25322 -7.935843,3.69241 -0.790363,0.084 -3.053976,0.12125 -3.817899,0.0628 z m -3.344725,-5.73981 c -0.301981,-0.0639 -0.710092,-0.21001 -0.710329,-0.25434 -6.3e-5,-0.0155 0.04607,-0.20886 0.102567,-0.42976 0.08156,-0.31889 0.116981,-0.39557 0.171969,-0.37227 0.630152,0.26698 1.179635,0.3233 1.543311,0.15818 0.488611,-0.22184 0.500912,-0.81066 0.02279,-1.09086 -0.176516,-0.10345 -0.276331,-0.12565 -0.63549,-0.14136 l -0.426082,-0.0187 v -0.37753 -0.37753 l 0.388187,-0.0242 c 0.454137,-0.0283 0.691642,-0.13072 0.822416,-0.35453 0.08044,-0.13768 0.08243,-0.16661 0.02289,-0.33446 -0.09064,-0.25562 -0.2875,-0.35389 -0.705895,-0.35234 -0.216044,0.001 -0.4266,0.0371 -0.642168,0.11053 -0.176396,0.0601 -0.326654,0.10351 -0.333904,0.0964 -0.0072,-0.007 -0.0619,-0.17091 -0.121449,-0.36392 l -0.108282,-0.35094 0.177754,-0.0907 c 0.301445,-0.15379 0.764759,-0.24129 1.279335,-0.24164 0.408329,-2.4e-4 0.523748,0.017 0.763115,0.1145 0.362539,0.14758 0.529219,0.28309 0.678832,0.55191 0.09118,0.16382 0.120957,0.28233 0.121927,0.48523 0.0021,0.46394 -0.194927,0.78493 -0.613149,0.99832 -0.119694,0.0611 -0.217632,0.11934 -0.217632,0.12949 0,0.0102 0.09859,0.0512 0.219086,0.0912 0.618275,0.20536 0.939059,0.87206 0.719285,1.49495 -0.139939,0.39664 -0.475996,0.69865 -0.973511,0.87489 -0.330941,0.11724 -1.146362,0.15385 -1.545587,0.0694 z m 4.515037,0.0105 c -1.121837,-0.19294 -1.718864,-1.30489 -1.443753,-2.68895 0.252779,-1.2717 1.188744,-2.0482 2.584725,-2.14434 l 0.46071,-0.0317 v 0.39067 c 0,0.43604 -0.0077,0.44518 -0.375744,0.44654 -0.396123,0.001 -0.846345,0.15451 -1.171331,0.39819 -0.175419,0.13153 -0.422057,0.53917 -0.42267,0.6986 l -3.44e-4,0.11108 0.10814,-0.1016 c 0.176812,-0.16611 0.544093,-0.28092 0.898631,-0.28092 0.606168,0 1.077108,0.28411 1.329105,0.80182 0.09483,0.19482 0.111802,0.29762 0.113453,0.68727 0.0014,0.41119 -0.01168,0.48769 -0.130972,0.74601 -0.167803,0.36337 -0.563443,0.74305 -0.907863,0.87124 -0.305054,0.11354 -0.718852,0.15171 -1.041993,0.0961 z m 0.666076,-0.86051 c 0.209924,-0.12801 0.314795,-0.38061 0.316026,-0.76123 0.0011,-0.2604 -0.01972,-0.35415 -0.109386,-0.49837 -0.278151,-0.44745 -0.944661,-0.43345 -1.216836,0.0256 -0.200936,0.33887 -0.04356,0.98958 0.294386,1.21734 0.193495,0.1304 0.516978,0.13795 0.71581,0.0167 z m 3.195546,0.80232 c -0.601055,-0.19724 -1.017301,-0.73836 -1.188423,-1.54495 -0.114004,-0.53734 -0.06864,-1.51173 0.09259,-1.98879 0.304416,-0.90073 0.910333,-1.3494 1.749626,-1.29554 1.018145,0.0653 1.62227,0.97436 1.62227,2.441 0,1.15744 -0.374004,1.97816 -1.046423,2.29626 -0.31369,0.1484 -0.919632,0.19374 -1.229636,0.092 z m 0.720066,-0.78559 c 0.27662,-0.14305 0.45316,-0.75848 0.45316,-1.57978 0,-0.82251 -0.18022,-1.43864 -0.463673,-1.58522 -0.533926,-0.2761 -0.902229,0.36851 -0.905729,1.58522 -0.0037,1.21919 0.369581,1.86247 0.916242,1.57978 z m 2.899671,-2.13234 c -1.118119,-0.21694 -1.121876,-1.79353 -0.0047,-2.06148 0.674405,-0.16179 1.337419,0.36167 1.330925,1.05078 -0.0064,0.67877 -0.621263,1.14743 -1.326007,1.0107 z m 0.534864,-0.54211 c 0.173429,-0.12495 0.235193,-0.27608 0.214433,-0.52468 -0.05116,-0.61276 -0.831078,-0.71387 -1.035939,-0.1343 -0.05891,0.16667 -0.05719,0.20708 0.01707,0.40151 0.06707,0.17563 0.118039,0.23249 0.271688,0.30314 0.207504,0.0954 0.35444,0.0828 0.532758,-0.0457 z"
       id="path1701"
       inkscape:connector-curvature="0" />
  </g>
</svg>
